<?xml version="1.0" standalone="no"?>
<!DOCTYPE svg PUBLIC "-//W3C//DTD SVG 20010904//EN"
 "http://www.w3.org/TR/2001/REC-SVG-20010904/DTD/svg10.dtd">
<svg version="1.0" xmlns="http://www.w3.org/2000/svg"
 width="260.000000pt" height="260.000000pt" viewBox="0 0 260.000000 260.000000"
 preserveAspectRatio="xMidYMid meet">
<metadata>
Created by potrace 1.11, written by Peter Selinger 2001-2013
</metadata>
<g transform="translate(0.000000,260.000000) scale(0.100000,-0.100000)"
fill="#000000" stroke="none">
<path d="M1178 2575 c-2 -2 -23 -6 -48 -9 -96 -13 -108 -16 -225 -53 -99 -31
-237 -99 -335 -167 -91 -62 -290 -257 -290 -284 0 -6 -4 -12 -8 -14 -10 -3
-82 -114 -82 -125 0 -3 -7 -14 -16 -24 -8 -9 -17 -23 -18 -31 -2 -7 -13 -35
-25 -63 -46 -101 -81 -230 -98 -360 -37 -293 56 -654 228 -882 27 -35 49 -67
49 -70 0 -4 42 -47 93 -97 172 -169 358 -275 587 -336 45 -12 54 -14 145 -27
64 -10 298 -9 350 1 22 4 51 9 65 11 40 7 63 13 90 23 14 5 28 10 33 11 4 0 8
1 10 2 1 0 9 2 17 4 80 17 258 109 370 193 76 56 191 167 238 231 15 20 33 42
39 49 7 7 13 17 13 22 0 5 6 15 14 23 23 22 100 175 130 257 90 246 103 532
34 774 -6 23 -12 46 -14 51 -6 30 -70 178 -96 225 -91 163 -239 331 -368 420
-19 13 -37 27 -40 31 -8 11 -142 83 -207 112 -74 33 -201 72 -261 81 -24 3
-48 8 -54 12 -9 6 -314 15 -320 9z"/>
</g>
</svg>
